<svg xmlns="http://www.w3.org/2000/svg" xmlns:xlink="http://www.w3.org/1999/xlink" width="500" zoomAndPan="magnify" viewBox="0 0 375 374.999991" height="500" preserveAspectRatio="xMidYMid meet" version="1.0"><defs><g/><clipPath id="11380def77"><path d="M 187.5 0 C 83.945312 0 0 83.945312 0 187.5 C 0 291.054688 83.945312 375 187.5 375 C 291.054688 375 375 291.054688 375 187.5 C 375 83.945312 291.054688 0 187.5 0 Z M 187.5 0 " clip-rule="nonzero"/></clipPath><clipPath id="ee8061542f"><path d="M 0 0 L 375 0 L 375 375 L 0 375 Z M 0 0 " clip-rule="nonzero"/></clipPath><clipPath id="a938aca7e3"><path d="M 187.5 0 C 83.945312 0 0 83.945312 0 187.5 C 0 291.054688 83.945312 375 187.5 375 C 291.054688 375 375 291.054688 375 187.5 C 375 83.945312 291.054688 0 187.5 0 Z M 187.5 0 " clip-rule="nonzero"/></clipPath><linearGradient x1="128" gradientTransform="matrix(1.464844, 0, 0, 1.464844, 0.0000045, -0.000000000000021316)" y1="0.000000000000014552" x2="128" gradientUnits="userSpaceOnUse" y2="256" id="752cd96b59"><stop stop-opacity="1" stop-color="rgb(0%, 31.759644%, 99.609375%)" offset="0"/><stop stop-opacity="1" stop-color="rgb(0.0137329%, 31.648254%, 99.234009%)" offset="0.00390625"/><stop stop-opacity="1" stop-color="rgb(0.0274658%, 31.538391%, 98.858643%)" offset="0.0078125"/><stop stop-opacity="1" stop-color="rgb(0.0411987%, 31.428528%, 98.483276%)" offset="0.0117188"/><stop stop-opacity="1" stop-color="rgb(0.0549316%, 31.318665%, 98.10791%)" offset="0.015625"/><stop stop-opacity="1" stop-color="rgb(0.0686646%, 31.207275%, 97.732544%)" offset="0.0195313"/><stop stop-opacity="1" stop-color="rgb(0.0823975%, 31.097412%, 97.357178%)" offset="0.0234375"/><stop stop-opacity="1" stop-color="rgb(0.0961304%, 30.987549%, 96.981812%)" offset="0.0273438"/><stop stop-opacity="1" stop-color="rgb(0.109863%, 30.877686%, 96.606445%)" offset="0.03125"/><stop stop-opacity="1" stop-color="rgb(0.123596%, 30.766296%, 96.231079%)" offset="0.0351563"/><stop stop-opacity="1" stop-color="rgb(0.137329%, 30.656433%, 95.855713%)" offset="0.0390625"/><stop stop-opacity="1" stop-color="rgb(0.151062%, 30.54657%, 95.480347%)" offset="0.0429688"/><stop stop-opacity="1" stop-color="rgb(0.164795%, 30.436707%, 95.10498%)" offset="0.046875"/><stop stop-opacity="1" stop-color="rgb(0.178528%, 30.325317%, 94.729614%)" offset="0.0507813"/><stop stop-opacity="1" stop-color="rgb(0.192261%, 30.215454%, 94.354248%)" offset="0.0546875"/><stop stop-opacity="1" stop-color="rgb(0.205994%, 30.104065%, 93.978882%)" offset="0.0585938"/><stop stop-opacity="1" stop-color="rgb(0.219727%, 29.994202%, 93.603516%)" offset="0.0625"/><stop stop-opacity="1" stop-color="rgb(0.233459%, 29.884338%, 93.228149%)" offset="0.0664063"/><stop stop-opacity="1" stop-color="rgb(0.247192%, 29.774475%, 92.854309%)" offset="0.0703125"/><stop stop-opacity="1" stop-color="rgb(0.260925%, 29.663086%, 92.478943%)" offset="0.0742188"/><stop stop-opacity="1" stop-color="rgb(0.274658%, 29.553223%, 92.103577%)" offset="0.078125"/><stop stop-opacity="1" stop-color="rgb(0.288391%, 29.443359%, 91.72821%)" offset="0.0820313"/><stop stop-opacity="1" stop-color="rgb(0.302124%, 29.333496%, 91.352844%)" offset="0.0859375"/><stop stop-opacity="1" stop-color="rgb(0.315857%, 29.222107%, 90.977478%)" offset="0.0898438"/><stop stop-opacity="1" stop-color="rgb(0.32959%, 29.112244%, 90.602112%)" offset="0.09375"/><stop stop-opacity="1" stop-color="rgb(0.343323%, 29.00238%, 90.226746%)" offset="0.0976563"/><stop stop-opacity="1" stop-color="rgb(0.357056%, 28.892517%, 89.851379%)" offset="0.101563"/><stop stop-opacity="1" stop-color="rgb(0.370789%, 28.781128%, 89.476013%)" offset="0.105469"/><stop stop-opacity="1" stop-color="rgb(0.386047%, 28.671265%, 89.100647%)" offset="0.109375"/><stop stop-opacity="1" stop-color="rgb(0.39978%, 28.561401%, 88.725281%)" offset="0.113281"/><stop stop-opacity="1" stop-color="rgb(0.413513%, 28.451538%, 88.349915%)" offset="0.117188"/><stop stop-opacity="1" stop-color="rgb(0.427246%, 28.340149%, 87.974548%)" offset="0.121094"/><stop stop-opacity="1" stop-color="rgb(0.440979%, 28.230286%, 87.599182%)" offset="0.125"/><stop stop-opacity="1" stop-color="rgb(0.454712%, 28.120422%, 87.223816%)" offset="0.128906"/><stop stop-opacity="1" stop-color="rgb(0.468445%, 28.010559%, 86.84845%)" offset="0.132813"/><stop stop-opacity="1" stop-color="rgb(0.482178%, 27.89917%, 86.473083%)" offset="0.136719"/><stop stop-opacity="1" stop-color="rgb(0.495911%, 27.789307%, 86.097717%)" offset="0.140625"/><stop stop-opacity="1" stop-color="rgb(0.509644%, 27.679443%, 85.722351%)" offset="0.144531"/><stop stop-opacity="1" stop-color="rgb(0.523376%, 27.56958%, 85.346985%)" offset="0.148438"/><stop stop-opacity="1" stop-color="rgb(0.537109%, 27.458191%, 84.971619%)" offset="0.152344"/><stop stop-opacity="1" stop-color="rgb(0.550842%, 27.348328%, 84.596252%)" offset="0.15625"/><stop stop-opacity="1" stop-color="rgb(0.564575%, 27.236938%, 84.220886%)" offset="0.160156"/><stop stop-opacity="1" stop-color="rgb(0.578308%, 27.127075%, 83.84552%)" offset="0.164063"/><stop stop-opacity="1" stop-color="rgb(0.592041%, 27.017212%, 83.470154%)" offset="0.167969"/><stop stop-opacity="1" stop-color="rgb(0.605774%, 26.907349%, 83.094788%)" offset="0.171875"/><stop stop-opacity="1" stop-color="rgb(0.619507%, 26.795959%, 82.719421%)" offset="0.175781"/><stop stop-opacity="1" stop-color="rgb(0.63324%, 26.686096%, 82.345581%)" offset="0.179688"/><stop stop-opacity="1" stop-color="rgb(0.646973%, 26.576233%, 81.970215%)" offset="0.183594"/><stop stop-opacity="1" stop-color="rgb(0.660706%, 26.46637%, 81.594849%)" offset="0.1875"/><stop stop-opacity="1" stop-color="rgb(0.674438%, 26.35498%, 81.219482%)" offset="0.191406"/><stop stop-opacity="1" stop-color="rgb(0.688171%, 26.245117%, 80.844116%)" offset="0.195313"/><stop stop-opacity="1" stop-color="rgb(0.701904%, 26.135254%, 80.46875%)" offset="0.199219"/><stop stop-opacity="1" stop-color="rgb(0.715637%, 26.025391%, 80.093384%)" offset="0.203125"/><stop stop-opacity="1" stop-color="rgb(0.72937%, 25.914001%, 79.718018%)" offset="0.207031"/><stop stop-opacity="1" stop-color="rgb(0.743103%, 25.804138%, 79.342651%)" offset="0.210938"/><stop stop-opacity="1" stop-color="rgb(0.756836%, 25.694275%, 78.967285%)" offset="0.214844"/><stop stop-opacity="1" stop-color="rgb(0.772095%, 25.584412%, 78.591919%)" offset="0.21875"/><stop stop-opacity="1" stop-color="rgb(0.785828%, 25.473022%, 78.216553%)" offset="0.222656"/><stop stop-opacity="1" stop-color="rgb(0.799561%, 25.363159%, 77.841187%)" offset="0.226563"/><stop stop-opacity="1" stop-color="rgb(0.813293%, 25.253296%, 77.46582%)" offset="0.230469"/><stop stop-opacity="1" stop-color="rgb(0.827026%, 25.143433%, 77.090454%)" offset="0.234375"/><stop stop-opacity="1" stop-color="rgb(0.840759%, 25.032043%, 76.715088%)" offset="0.238281"/><stop stop-opacity="1" stop-color="rgb(0.854492%, 24.92218%, 76.339722%)" offset="0.242188"/><stop stop-opacity="1" stop-color="rgb(0.868225%, 24.812317%, 75.964355%)" offset="0.246094"/><stop stop-opacity="1" stop-color="rgb(0.881958%, 24.702454%, 75.588989%)" offset="0.25"/><stop stop-opacity="1" stop-color="rgb(0.895691%, 24.591064%, 75.213623%)" offset="0.253906"/><stop stop-opacity="1" stop-color="rgb(0.909424%, 24.481201%, 74.838257%)" offset="0.257812"/><stop stop-opacity="1" stop-color="rgb(0.923157%, 24.369812%, 74.462891%)" offset="0.261719"/><stop stop-opacity="1" stop-color="rgb(0.93689%, 24.259949%, 74.087524%)" offset="0.265625"/><stop stop-opacity="1" stop-color="rgb(0.950623%, 24.150085%, 73.712158%)" offset="0.269531"/><stop stop-opacity="1" stop-color="rgb(0.964355%, 24.040222%, 73.336792%)" offset="0.273438"/><stop stop-opacity="1" stop-color="rgb(0.978088%, 23.928833%, 72.961426%)" offset="0.277344"/><stop stop-opacity="1" stop-color="rgb(0.991821%, 23.81897%, 72.58606%)" offset="0.28125"/><stop stop-opacity="1" stop-color="rgb(1.005554%, 23.709106%, 72.210693%)" offset="0.285156"/><stop stop-opacity="1" stop-color="rgb(1.019287%, 23.599243%, 71.836853%)" offset="0.289062"/><stop stop-opacity="1" stop-color="rgb(1.03302%, 23.487854%, 71.461487%)" offset="0.292969"/><stop stop-opacity="1" stop-color="rgb(1.046753%, 23.377991%, 71.086121%)" offset="0.296875"/><stop stop-opacity="1" stop-color="rgb(1.060486%, 23.268127%, 70.710754%)" offset="0.300781"/><stop stop-opacity="1" stop-color="rgb(1.074219%, 23.158264%, 70.335388%)" offset="0.304688"/><stop stop-opacity="1" stop-color="rgb(1.087952%, 23.046875%, 69.960022%)" offset="0.308594"/><stop stop-opacity="1" stop-color="rgb(1.101685%, 22.937012%, 69.584656%)" offset="0.3125"/><stop stop-opacity="1" stop-color="rgb(1.115417%, 22.827148%, 69.20929%)" offset="0.316406"/><stop stop-opacity="1" stop-color="rgb(1.130676%, 22.717285%, 68.833923%)" offset="0.320312"/><stop stop-opacity="1" stop-color="rgb(1.144409%, 22.605896%, 68.458557%)" offset="0.324219"/><stop stop-opacity="1" stop-color="rgb(1.158142%, 22.496033%, 68.083191%)" offset="0.328125"/><stop stop-opacity="1" stop-color="rgb(1.171875%, 22.386169%, 67.707825%)" offset="0.332031"/><stop stop-opacity="1" stop-color="rgb(1.185608%, 22.276306%, 67.332458%)" offset="0.335938"/><stop stop-opacity="1" stop-color="rgb(1.199341%, 22.164917%, 66.957092%)" offset="0.339844"/><stop stop-opacity="1" stop-color="rgb(1.213074%, 22.055054%, 66.581726%)" offset="0.34375"/><stop stop-opacity="1" stop-color="rgb(1.226807%, 21.94519%, 66.20636%)" offset="0.347656"/><stop stop-opacity="1" stop-color="rgb(1.24054%, 21.835327%, 65.830994%)" offset="0.351562"/><stop stop-opacity="1" stop-color="rgb(1.254272%, 21.723938%, 65.455627%)" offset="0.355469"/><stop stop-opacity="1" stop-color="rgb(1.268005%, 21.614075%, 65.080261%)" offset="0.359375"/><stop stop-opacity="1" stop-color="rgb(1.281738%, 21.502686%, 64.704895%)" offset="0.363281"/><stop stop-opacity="1" stop-color="rgb(1.295471%, 21.392822%, 64.329529%)" offset="0.367188"/><stop stop-opacity="1" stop-color="rgb(1.309204%, 21.282959%, 63.954163%)" offset="0.371094"/><stop stop-opacity="1" stop-color="rgb(1.322937%, 21.173096%, 63.578796%)" offset="0.375"/><stop stop-opacity="1" stop-color="rgb(1.33667%, 21.061707%, 63.20343%)" offset="0.378906"/><stop stop-opacity="1" stop-color="rgb(1.350403%, 20.951843%, 62.828064%)" offset="0.382812"/><stop stop-opacity="1" stop-color="rgb(1.364136%, 20.84198%, 62.452698%)" offset="0.386719"/><stop stop-opacity="1" stop-color="rgb(1.377869%, 20.732117%, 62.077332%)" offset="0.390625"/><stop stop-opacity="1" stop-color="rgb(1.391602%, 20.620728%, 61.701965%)" offset="0.394531"/><stop stop-opacity="1" stop-color="rgb(1.405334%, 20.510864%, 61.328125%)" offset="0.398438"/><stop stop-opacity="1" stop-color="rgb(1.419067%, 20.401001%, 60.952759%)" offset="0.402344"/><stop stop-opacity="1" stop-color="rgb(1.4328%, 20.291138%, 60.577393%)" offset="0.40625"/><stop stop-opacity="1" stop-color="rgb(1.446533%, 20.179749%, 60.202026%)" offset="0.410156"/><stop stop-opacity="1" stop-color="rgb(1.460266%, 20.069885%, 59.82666%)" offset="0.414062"/><stop stop-opacity="1" stop-color="rgb(1.473999%, 19.960022%, 59.451294%)" offset="0.417969"/><stop stop-opacity="1" stop-color="rgb(1.487732%, 19.850159%, 59.075928%)" offset="0.421875"/><stop stop-opacity="1" stop-color="rgb(1.501465%, 19.73877%, 58.700562%)" offset="0.425781"/><stop stop-opacity="1" stop-color="rgb(1.516724%, 19.628906%, 58.325195%)" offset="0.429688"/><stop stop-opacity="1" stop-color="rgb(1.530457%, 19.519043%, 57.949829%)" offset="0.433594"/><stop stop-opacity="1" stop-color="rgb(1.544189%, 19.40918%, 57.574463%)" offset="0.4375"/><stop stop-opacity="1" stop-color="rgb(1.557922%, 19.297791%, 57.199097%)" offset="0.441406"/><stop stop-opacity="1" stop-color="rgb(1.571655%, 19.187927%, 56.82373%)" offset="0.445312"/><stop stop-opacity="1" stop-color="rgb(1.585388%, 19.078064%, 56.448364%)" offset="0.449219"/><stop stop-opacity="1" stop-color="rgb(1.599121%, 18.968201%, 56.072998%)" offset="0.453125"/><stop stop-opacity="1" stop-color="rgb(1.612854%, 18.856812%, 55.697632%)" offset="0.457031"/><stop stop-opacity="1" stop-color="rgb(1.626587%, 18.746948%, 55.322266%)" offset="0.460938"/><stop stop-opacity="1" stop-color="rgb(1.64032%, 18.635559%, 54.946899%)" offset="0.464844"/><stop stop-opacity="1" stop-color="rgb(1.654053%, 18.525696%, 54.571533%)" offset="0.46875"/><stop stop-opacity="1" stop-color="rgb(1.667786%, 18.415833%, 54.196167%)" offset="0.472656"/><stop stop-opacity="1" stop-color="rgb(1.681519%, 18.305969%, 53.820801%)" offset="0.476562"/><stop stop-opacity="1" stop-color="rgb(1.695251%, 18.19458%, 53.445435%)" offset="0.480469"/><stop stop-opacity="1" stop-color="rgb(1.708984%, 18.084717%, 53.070068%)" offset="0.484375"/><stop stop-opacity="1" stop-color="rgb(1.722717%, 17.974854%, 52.694702%)" offset="0.488281"/><stop stop-opacity="1" stop-color="rgb(1.73645%, 17.86499%, 52.319336%)" offset="0.492188"/><stop stop-opacity="1" stop-color="rgb(1.750183%, 17.753601%, 51.94397%)" offset="0.496094"/><stop stop-opacity="1" stop-color="rgb(1.763916%, 17.643738%, 51.568604%)" offset="0.5"/><stop stop-opacity="1" stop-color="rgb(1.777649%, 17.533875%, 51.193237%)" offset="0.503906"/><stop stop-opacity="1" stop-color="rgb(1.791382%, 17.424011%, 50.817871%)" offset="0.507812"/><stop stop-opacity="1" stop-color="rgb(1.805115%, 17.312622%, 50.442505%)" offset="0.511719"/><stop stop-opacity="1" stop-color="rgb(1.818848%, 17.202759%, 50.068665%)" offset="0.515625"/><stop stop-opacity="1" stop-color="rgb(1.832581%, 17.092896%, 49.693298%)" offset="0.519531"/><stop stop-opacity="1" stop-color="rgb(1.846313%, 16.983032%, 49.317932%)" offset="0.523438"/><stop stop-opacity="1" stop-color="rgb(1.860046%, 16.871643%, 48.942566%)" offset="0.527344"/><stop stop-opacity="1" stop-color="rgb(1.875305%, 16.76178%, 48.5672%)" offset="0.53125"/><stop stop-opacity="1" stop-color="rgb(1.889038%, 16.651917%, 48.191833%)" offset="0.535156"/><stop stop-opacity="1" stop-color="rgb(1.902771%, 16.542053%, 47.816467%)" offset="0.539062"/><stop stop-opacity="1" stop-color="rgb(1.916504%, 16.430664%, 47.441101%)" offset="0.542969"/><stop stop-opacity="1" stop-color="rgb(1.930237%, 16.320801%, 47.065735%)" offset="0.546875"/><stop stop-opacity="1" stop-color="rgb(1.94397%, 16.210938%, 46.690369%)" offset="0.550781"/><stop stop-opacity="1" stop-color="rgb(1.957703%, 16.101074%, 46.315002%)" offset="0.554688"/><stop stop-opacity="1" stop-color="rgb(1.971436%, 15.989685%, 45.939636%)" offset="0.558594"/><stop stop-opacity="1" stop-color="rgb(1.985168%, 15.879822%, 45.56427%)" offset="0.5625"/><stop stop-opacity="1" stop-color="rgb(1.998901%, 15.768433%, 45.188904%)" offset="0.566406"/><stop stop-opacity="1" stop-color="rgb(2.012634%, 15.658569%, 44.813538%)" offset="0.570312"/><stop stop-opacity="1" stop-color="rgb(2.026367%, 15.548706%, 44.438171%)" offset="0.574219"/><stop stop-opacity="1" stop-color="rgb(2.0401%, 15.438843%, 44.062805%)" offset="0.578125"/><stop stop-opacity="1" stop-color="rgb(2.053833%, 15.327454%, 43.687439%)" offset="0.582031"/><stop stop-opacity="1" stop-color="rgb(2.067566%, 15.21759%, 43.312073%)" offset="0.585938"/><stop stop-opacity="1" stop-color="rgb(2.081299%, 15.107727%, 42.936707%)" offset="0.589844"/><stop stop-opacity="1" stop-color="rgb(2.095032%, 14.997864%, 42.56134%)" offset="0.59375"/><stop stop-opacity="1" stop-color="rgb(2.108765%, 14.886475%, 42.185974%)" offset="0.597656"/><stop stop-opacity="1" stop-color="rgb(2.122498%, 14.776611%, 41.810608%)" offset="0.601562"/><stop stop-opacity="1" stop-color="rgb(2.13623%, 14.666748%, 41.435242%)" offset="0.605469"/><stop stop-opacity="1" stop-color="rgb(2.149963%, 14.556885%, 41.059875%)" offset="0.609375"/><stop stop-opacity="1" stop-color="rgb(2.163696%, 14.445496%, 40.684509%)" offset="0.613281"/><stop stop-opacity="1" stop-color="rgb(2.177429%, 14.335632%, 40.309143%)" offset="0.617188"/><stop stop-opacity="1" stop-color="rgb(2.191162%, 14.225769%, 39.933777%)" offset="0.621094"/><stop stop-opacity="1" stop-color="rgb(2.204895%, 14.115906%, 39.559937%)" offset="0.625"/><stop stop-opacity="1" stop-color="rgb(2.218628%, 14.004517%, 39.18457%)" offset="0.628906"/><stop stop-opacity="1" stop-color="rgb(2.232361%, 13.894653%, 38.809204%)" offset="0.632812"/><stop stop-opacity="1" stop-color="rgb(2.246094%, 13.78479%, 38.433838%)" offset="0.636719"/><stop stop-opacity="1" stop-color="rgb(2.261353%, 13.674927%, 38.058472%)" offset="0.640625"/><stop stop-opacity="1" stop-color="rgb(2.275085%, 13.563538%, 37.683105%)" offset="0.644531"/><stop stop-opacity="1" stop-color="rgb(2.288818%, 13.453674%, 37.307739%)" offset="0.648438"/><stop stop-opacity="1" stop-color="rgb(2.302551%, 13.343811%, 36.932373%)" offset="0.652344"/><stop stop-opacity="1" stop-color="rgb(2.316284%, 13.233948%, 36.557007%)" offset="0.65625"/><stop stop-opacity="1" stop-color="rgb(2.330017%, 13.122559%, 36.181641%)" offset="0.660156"/><stop stop-opacity="1" stop-color="rgb(2.34375%, 13.012695%, 35.806274%)" offset="0.664062"/><stop stop-opacity="1" stop-color="rgb(2.357483%, 12.902832%, 35.430908%)" offset="0.667969"/><stop stop-opacity="1" stop-color="rgb(2.371216%, 12.792969%, 35.055542%)" offset="0.671875"/><stop stop-opacity="1" stop-color="rgb(2.384949%, 12.68158%, 34.680176%)" offset="0.675781"/><stop stop-opacity="1" stop-color="rgb(2.398682%, 12.571716%, 34.30481%)" offset="0.679688"/><stop stop-opacity="1" stop-color="rgb(2.412415%, 12.460327%, 33.929443%)" offset="0.683594"/><stop stop-opacity="1" stop-color="rgb(2.426147%, 12.350464%, 33.554077%)" offset="0.6875"/><stop stop-opacity="1" stop-color="rgb(2.43988%, 12.240601%, 33.178711%)" offset="0.691406"/><stop stop-opacity="1" stop-color="rgb(2.453613%, 12.130737%, 32.803345%)" offset="0.695312"/><stop stop-opacity="1" stop-color="rgb(2.467346%, 12.019348%, 32.427979%)" offset="0.699219"/><stop stop-opacity="1" stop-color="rgb(2.481079%, 11.909485%, 32.052612%)" offset="0.703125"/><stop stop-opacity="1" stop-color="rgb(2.494812%, 11.799622%, 31.677246%)" offset="0.707031"/><stop stop-opacity="1" stop-color="rgb(2.508545%, 11.689758%, 31.30188%)" offset="0.710938"/><stop stop-opacity="1" stop-color="rgb(2.522278%, 11.578369%, 30.926514%)" offset="0.714844"/><stop stop-opacity="1" stop-color="rgb(2.536011%, 11.468506%, 30.551147%)" offset="0.71875"/><stop stop-opacity="1" stop-color="rgb(2.549744%, 11.358643%, 30.175781%)" offset="0.722656"/><stop stop-opacity="1" stop-color="rgb(2.563477%, 11.248779%, 29.800415%)" offset="0.726562"/><stop stop-opacity="1" stop-color="rgb(2.577209%, 11.13739%, 29.425049%)" offset="0.730469"/><stop stop-opacity="1" stop-color="rgb(2.590942%, 11.027527%, 29.051208%)" offset="0.734375"/><stop stop-opacity="1" stop-color="rgb(2.604675%, 10.917664%, 28.675842%)" offset="0.738281"/><stop stop-opacity="1" stop-color="rgb(2.618408%, 10.8078%, 28.300476%)" offset="0.742188"/><stop stop-opacity="1" stop-color="rgb(2.632141%, 10.696411%, 27.92511%)" offset="0.746094"/><stop stop-opacity="1" stop-color="rgb(2.6474%, 10.586548%, 27.549744%)" offset="0.75"/><stop stop-opacity="1" stop-color="rgb(2.661133%, 10.476685%, 27.174377%)" offset="0.753906"/><stop stop-opacity="1" stop-color="rgb(2.674866%, 10.366821%, 26.799011%)" offset="0.757812"/><stop stop-opacity="1" stop-color="rgb(2.688599%, 10.255432%, 26.423645%)" offset="0.761719"/><stop stop-opacity="1" stop-color="rgb(2.702332%, 10.145569%, 26.048279%)" offset="0.765625"/><stop stop-opacity="1" stop-color="rgb(2.716064%, 10.035706%, 25.672913%)" offset="0.769531"/><stop stop-opacity="1" stop-color="rgb(2.729797%, 9.925842%, 25.297546%)" offset="0.773438"/><stop stop-opacity="1" stop-color="rgb(2.74353%, 9.814453%, 24.92218%)" offset="0.777344"/><stop stop-opacity="1" stop-color="rgb(2.757263%, 9.70459%, 24.546814%)" offset="0.78125"/><stop stop-opacity="1" stop-color="rgb(2.770996%, 9.593201%, 24.171448%)" offset="0.785156"/><stop stop-opacity="1" stop-color="rgb(2.784729%, 9.483337%, 23.796082%)" offset="0.789062"/><stop stop-opacity="1" stop-color="rgb(2.798462%, 9.373474%, 23.420715%)" offset="0.792969"/><stop stop-opacity="1" stop-color="rgb(2.812195%, 9.263611%, 23.045349%)" offset="0.796875"/><stop stop-opacity="1" stop-color="rgb(2.825928%, 9.152222%, 22.669983%)" offset="0.800781"/><stop stop-opacity="1" stop-color="rgb(2.839661%, 9.042358%, 22.294617%)" offset="0.804688"/><stop stop-opacity="1" stop-color="rgb(2.853394%, 8.932495%, 21.91925%)" offset="0.808594"/><stop stop-opacity="1" stop-color="rgb(2.867126%, 8.822632%, 21.543884%)" offset="0.8125"/><stop stop-opacity="1" stop-color="rgb(2.880859%, 8.711243%, 21.168518%)" offset="0.816406"/><stop stop-opacity="1" stop-color="rgb(2.894592%, 8.601379%, 20.793152%)" offset="0.820312"/><stop stop-opacity="1" stop-color="rgb(2.908325%, 8.491516%, 20.417786%)" offset="0.824219"/><stop stop-opacity="1" stop-color="rgb(2.922058%, 8.381653%, 20.042419%)" offset="0.828125"/><stop stop-opacity="1" stop-color="rgb(2.935791%, 8.270264%, 19.667053%)" offset="0.832031"/><stop stop-opacity="1" stop-color="rgb(2.949524%, 8.1604%, 19.291687%)" offset="0.835938"/><stop stop-opacity="1" stop-color="rgb(2.963257%, 8.050537%, 18.916321%)" offset="0.839844"/><stop stop-opacity="1" stop-color="rgb(2.97699%, 7.940674%, 18.54248%)" offset="0.84375"/><stop stop-opacity="1" stop-color="rgb(2.990723%, 7.829285%, 18.167114%)" offset="0.847656"/><stop stop-opacity="1" stop-color="rgb(3.005981%, 7.719421%, 17.791748%)" offset="0.851562"/><stop stop-opacity="1" stop-color="rgb(3.019714%, 7.609558%, 17.416382%)" offset="0.855469"/><stop stop-opacity="1" stop-color="rgb(3.033447%, 7.499695%, 17.041016%)" offset="0.859375"/><stop stop-opacity="1" stop-color="rgb(3.04718%, 7.388306%, 16.665649%)" offset="0.863281"/><stop stop-opacity="1" stop-color="rgb(3.060913%, 7.278442%, 16.290283%)" offset="0.867188"/><stop stop-opacity="1" stop-color="rgb(3.074646%, 7.168579%, 15.914917%)" offset="0.871094"/><stop stop-opacity="1" stop-color="rgb(3.088379%, 7.058716%, 15.539551%)" offset="0.875"/><stop stop-opacity="1" stop-color="rgb(3.102112%, 6.947327%, 15.164185%)" offset="0.878906"/><stop stop-opacity="1" stop-color="rgb(3.115845%, 6.837463%, 14.788818%)" offset="0.882812"/><stop stop-opacity="1" stop-color="rgb(3.129578%, 6.726074%, 14.413452%)" offset="0.886719"/><stop stop-opacity="1" stop-color="rgb(3.143311%, 6.616211%, 14.038086%)" offset="0.890625"/><stop stop-opacity="1" stop-color="rgb(3.157043%, 6.506348%, 13.66272%)" offset="0.894531"/><stop stop-opacity="1" stop-color="rgb(3.170776%, 6.396484%, 13.287354%)" offset="0.898438"/><stop stop-opacity="1" stop-color="rgb(3.184509%, 6.285095%, 12.911987%)" offset="0.902344"/><stop stop-opacity="1" stop-color="rgb(3.198242%, 6.175232%, 12.536621%)" offset="0.90625"/><stop stop-opacity="1" stop-color="rgb(3.211975%, 6.065369%, 12.161255%)" offset="0.910156"/><stop stop-opacity="1" stop-color="rgb(3.225708%, 5.955505%, 11.785889%)" offset="0.914062"/><stop stop-opacity="1" stop-color="rgb(3.239441%, 5.844116%, 11.410522%)" offset="0.917969"/><stop stop-opacity="1" stop-color="rgb(3.253174%, 5.734253%, 11.035156%)" offset="0.921875"/><stop stop-opacity="1" stop-color="rgb(3.266907%, 5.62439%, 10.65979%)" offset="0.925781"/><stop stop-opacity="1" stop-color="rgb(3.28064%, 5.514526%, 10.284424%)" offset="0.929688"/><stop stop-opacity="1" stop-color="rgb(3.294373%, 5.403137%, 9.909058%)" offset="0.933594"/><stop stop-opacity="1" stop-color="rgb(3.308105%, 5.293274%, 9.533691%)" offset="0.9375"/><stop stop-opacity="1" stop-color="rgb(3.321838%, 5.183411%, 9.158325%)" offset="0.941406"/><stop stop-opacity="1" stop-color="rgb(3.335571%, 5.073547%, 8.782959%)" offset="0.945312"/><stop stop-opacity="1" stop-color="rgb(3.349304%, 4.962158%, 8.407593%)" offset="0.949219"/><stop stop-opacity="1" stop-color="rgb(3.363037%, 4.852295%, 8.032227%)" offset="0.953125"/><stop stop-opacity="1" stop-color="rgb(3.37677%, 4.742432%, 7.65686%)" offset="0.957031"/><stop stop-opacity="1" stop-color="rgb(3.392029%, 4.632568%, 7.28302%)" offset="0.960938"/><stop stop-opacity="1" stop-color="rgb(3.405762%, 4.521179%, 6.907654%)" offset="0.964844"/><stop stop-opacity="1" stop-color="rgb(3.419495%, 4.411316%, 6.532288%)" offset="0.96875"/><stop stop-opacity="1" stop-color="rgb(3.433228%, 4.301453%, 6.156921%)" offset="0.972656"/><stop stop-opacity="1" stop-color="rgb(3.44696%, 4.191589%, 5.781555%)" offset="0.976562"/><stop stop-opacity="1" stop-color="rgb(3.460693%, 4.0802%, 5.406189%)" offset="0.980469"/><stop stop-opacity="1" stop-color="rgb(3.474426%, 3.970337%, 5.030823%)" offset="0.984375"/><stop stop-opacity="1" stop-color="rgb(3.488159%, 3.858948%, 4.655457%)" offset="0.988281"/><stop stop-opacity="1" stop-color="rgb(3.501892%, 3.749084%, 4.28009%)" offset="0.992188"/><stop stop-opacity="1" stop-color="rgb(3.515625%, 3.639221%, 3.904724%)" offset="0.996094"/><stop stop-opacity="1" stop-color="rgb(3.529358%, 3.529358%, 3.529358%)" offset="1"/></linearGradient><clipPath id="4c9044148c"><rect x="0" width="375" y="0" height="375"/></clipPath><clipPath id="dc3604dfe4"><rect x="0" width="375" y="0" height="239"/></clipPath><clipPath id="1a602c1c37"><rect x="0" width="86" y="0" height="75"/></clipPath></defs><g clip-path="url(#11380def77)"><g transform="matrix(1, 0, 0, 1, 0, 0)"><g clip-path="url(#4c9044148c)"><g clip-path="url(#ee8061542f)"><g clip-path="url(#a938aca7e3)"><rect x="-82.5" fill="url(#752cd96b59)" width="540" height="539.999987" y="-82.499998"/></g></g></g></g></g><g transform="matrix(1, 0, 0, 1, 0, 75)"><g clip-path="url(#dc3604dfe4)"><g fill="#7d5500" fill-opacity="1"><g transform="translate(46.677936, 193.548098)"><g><path d="M 22.945312 -57.621094 C 20.328125 -60.65625 17.007812 -64.984375 12.988281 -70.597656 C 8.957031 -76.222656 5.222656 -82.050781 1.777344 -88.082031 L 4.457031 -89.613281 L 5.390625 -86.671875 L 5.242188 -86.625 L 4.308594 -89.566406 L 7.21875 -90.59375 C 10.351562 -81.734375 13.089844 -73.609375 15.429688 -66.222656 L 17.011719 -61.222656 L 25.304688 -34.542969 C 27.285156 -28.300781 28.472656 -23.636719 28.878906 -20.558594 L 25.816406 -20.15625 L 24.625 -23 C 27.851562 -24.355469 31.617188 -25.71875 35.921875 -27.082031 L 38.863281 -28.011719 L 44.316406 -10.804688 L 4.902344 1.683594 L -0.00390625 -13.800781 L 2.796875 -14.800781 C 5.082031 -15.621094 6.691406 -16.40625 7.621094 -17.160156 C 8.167969 -17.601562 8.503906 -18.414062 8.636719 -19.585938 C 8.8125 -21.167969 8.363281 -23.660156 7.28125 -27.066406 L -9.699219 -83.722656 C -11.800781 -91.050781 -13.027344 -95.628906 -13.378906 -97.449219 L -10.347656 -98.03125 L -9.300781 -95.128906 L -23.210938 -90.101562 L -28.699219 -107.425781 L 8.753906 -119.296875 L 50.320312 -67.777344 C 53.019531 -64.394531 55.941406 -60.65625 59.082031 -56.558594 C 62.253906 -52.417969 64.59375 -49.199219 66.097656 -46.902344 L 63.515625 -45.210938 L 62.585938 -48.152344 L 62.730469 -48.199219 L 63.664062 -45.257812 L 60.585938 -45.484375 C 60.664062 -46.539062 60.777344 -49.875 60.925781 -55.484375 C 61.023438 -59.964844 61.164062 -63.8125 61.34375 -67.03125 L 65.003906 -137.121094 L 103.957031 -149.460938 L 108.863281 -133.980469 L 106.0625 -132.976562 C 103.753906 -132.148438 102.078125 -131.332031 101.035156 -130.527344 C 100.425781 -130.054688 100.054688 -129.246094 99.925781 -128.097656 C 99.753906 -126.546875 100.246094 -124.09375 101.402344 -120.738281 L 121.445312 -65.148438 C 123.394531 -60.050781 124.652344 -55.363281 125.207031 -51.078125 L 122.148438 -50.679688 L 120.953125 -53.527344 C 124.179688 -54.882812 127.949219 -56.242188 132.253906 -57.605469 L 135.195312 -58.539062 L 140.648438 -41.332031 L 93.878906 -26.511719 L 88.972656 -41.992188 L 91.773438 -42.996094 C 94.070312 -43.820312 95.710938 -44.621094 96.699219 -45.402344 C 97.277344 -45.859375 97.628906 -46.667969 97.761719 -47.828125 C 97.933594 -49.378906 97.441406 -51.832031 96.285156 -55.1875 L 85.238281 -85.957031 L 83.191406 -91.410156 C 79.675781 -100.792969 77.277344 -107.34375 75.988281 -111.0625 L 78.90625 -112.070312 L 79.835938 -109.128906 L 79.691406 -109.082031 L 78.757812 -112.023438 L 81.839844 -111.867188 L 77.121094 -19.582031 L 59.429688 -13.976562 L 22.917969 -57.65625 Z M 27.652344 -61.617188 L 62.835938 -19.523438 L 60.46875 -17.542969 L 59.539062 -20.484375 L 73.214844 -24.820312 L 74.148438 -21.875 L 71.066406 -22.035156 L 75.785156 -114.320312 L 80.839844 -115.917969 L 81.820312 -113.078125 C 83.089844 -109.410156 85.472656 -102.910156 88.96875 -93.582031 L 91.046875 -88.042969 L 102.117188 -57.203125 C 103.578125 -52.96875 104.171875 -49.617188 103.894531 -47.144531 C 103.574219 -44.277344 102.453125 -42.082031 100.527344 -40.5625 C 99.011719 -39.363281 96.789062 -38.238281 93.851562 -37.1875 L 92.8125 -40.089844 L 95.753906 -41.023438 L 98.828125 -31.316406 L 95.886719 -30.382812 L 94.957031 -33.324219 L 135.839844 -46.28125 L 136.773438 -43.339844 L 133.832031 -42.40625 L 130.242188 -53.730469 L 133.183594 -54.664062 L 134.117188 -51.722656 C 129.988281 -50.414062 126.398438 -49.121094 123.34375 -47.835938 L 119.609375 -46.269531 L 119.085938 -50.285156 C 118.59375 -54.082031 117.445312 -58.339844 115.640625 -63.058594 L 95.570312 -118.722656 C 94.109375 -122.957031 93.515625 -126.308594 93.792969 -128.785156 C 94.117188 -131.664062 95.269531 -133.871094 97.261719 -135.410156 C 98.816406 -136.613281 101.058594 -137.738281 103.980469 -138.785156 L 105.023438 -135.882812 L 102.082031 -134.949219 L 99.003906 -144.65625 L 101.945312 -145.589844 L 102.878906 -142.648438 L 68.90625 -131.882812 L 67.972656 -134.824219 L 71.054688 -134.664062 L 67.503906 -66.6875 C 67.328125 -63.539062 67.191406 -59.75 67.09375 -55.320312 C 66.945312 -49.613281 66.824219 -46.183594 66.742188 -45.03125 L 66.585938 -42.945312 L 62.21875 -41.5625 L 60.933594 -43.519531 C 59.515625 -45.691406 57.261719 -48.785156 54.183594 -52.804688 C 51.066406 -56.867188 48.179688 -60.566406 45.515625 -63.902344 L 5.273438 -113.777344 L 7.675781 -115.714844 L 8.609375 -112.773438 L -23.894531 -102.476562 L -24.828125 -105.417969 L -21.886719 -106.351562 L -18.296875 -95.027344 L -21.238281 -94.09375 L -22.289062 -96.996094 L -8 -102.160156 L -7.316406 -98.613281 C -7.003906 -96.972656 -5.824219 -92.601562 -3.785156 -85.492188 L 13.164062 -28.933594 C 14.507812 -24.691406 15.042969 -21.347656 14.769531 -18.902344 C 14.453125 -16.050781 13.363281 -13.871094 11.507812 -12.367188 C 10.03125 -11.171875 7.824219 -10.046875 4.875 -8.992188 L 3.835938 -11.898438 L 6.777344 -12.828125 L 9.855469 -3.121094 L 6.914062 -2.191406 L 5.980469 -5.132812 L 39.511719 -15.757812 L 40.445312 -12.816406 L 37.503906 -11.882812 L 33.914062 -23.207031 L 36.855469 -24.140625 L 37.789062 -21.199219 C 33.660156 -19.890625 30.070312 -18.59375 27.011719 -17.3125 L 23.285156 -15.746094 L 22.757812 -19.757812 C 22.402344 -22.476562 21.289062 -26.792969 19.414062 -32.710938 L 11.128906 -59.359375 L 9.546875 -64.359375 C 7.226562 -71.679688 4.511719 -79.738281 1.402344 -88.539062 L 0.335938 -91.542969 L 5.898438 -93.304688 L 7.136719 -91.144531 C 10.476562 -85.296875 14.097656 -79.644531 18.003906 -74.191406 C 21.917969 -68.726562 25.121094 -64.546875 27.621094 -61.652344 Z M 27.652344 -61.617188 "/></g></g></g><g fill="#7d5500" fill-opacity="1"><g transform="translate(224.290945, 158.37809)"><g><path d="M 30.632812 -1.546875 C 32.90625 -0.691406 34.640625 -0.253906 35.835938 -0.226562 C 36.539062 -0.210938 37.324219 -0.605469 38.183594 -1.417969 C 39.339844 -2.507812 40.609375 -4.703125 41.992188 -8 L 70.546875 -76.15625 L 73.394531 -74.964844 L 72.199219 -72.117188 L 65.65625 -74.859375 C 60.933594 -76.742188 56.703125 -76.695312 52.957031 -74.710938 C 49.023438 -72.628906 45.628906 -68.179688 42.773438 -61.363281 L 41.582031 -58.519531 L 26.433594 -64.863281 L 43.128906 -102.363281 L 134.914062 -63.90625 L 120.058594 -25.636719 L 104.898438 -31.988281 L 106.089844 -34.835938 C 108.953125 -41.660156 109.746094 -47.292969 108.472656 -51.734375 C 107.277344 -55.894531 104.375 -58.898438 99.773438 -60.734375 L 92.890625 -63.613281 L 94.085938 -66.460938 L 96.929688 -65.269531 L 68.96875 1.464844 C 66.238281 7.984375 64.179688 12.332031 62.789062 14.503906 L 60.191406 12.839844 L 61.121094 9.898438 C 64.457031 10.953125 68.398438 12.433594 72.945312 14.335938 L 75.789062 15.53125 L 68.816406 32.179688 L 21.574219 12.382812 L 27.851562 -2.59375 Z M 28.460938 4.226562 L 29.546875 1.339844 L 32.394531 2.53125 L 28.457031 11.921875 L 25.613281 10.730469 L 26.804688 7.886719 L 68.351562 25.292969 L 67.160156 28.140625 L 64.316406 26.945312 L 68.90625 15.992188 L 71.75 17.183594 L 70.558594 20.027344 C 66.1875 18.195312 62.421875 16.78125 59.257812 15.78125 L 55.421875 14.570312 L 57.589844 11.179688 C 58.789062 9.304688 60.683594 5.273438 63.277344 -0.917969 L 92.429688 -70.5 L 102.058594 -66.464844 C 108.535156 -63.882812 112.652344 -59.539062 114.402344 -53.433594 C 116.074219 -47.605469 115.203125 -40.609375 111.785156 -32.449219 L 108.9375 -33.640625 L 110.128906 -36.488281 L 119.519531 -32.554688 L 118.328125 -29.707031 L 115.453125 -30.824219 L 128.070312 -63.339844 L 130.949219 -62.222656 L 129.757812 -59.375 L 43.527344 -95.503906 L 44.71875 -98.351562 L 47.539062 -97.097656 L 33.355469 -65.238281 L 30.535156 -66.492188 L 31.726562 -69.335938 L 41.117188 -65.402344 L 39.925781 -62.558594 L 37.082031 -63.75 C 40.503906 -71.921875 44.835938 -77.394531 50.070312 -80.167969 C 55.496094 -83.039062 61.488281 -83.167969 68.039062 -80.550781 L 77.429688 -76.617188 L 47.683594 -5.613281 C 45.964844 -1.511719 44.207031 1.382812 42.417969 3.074219 C 40.328125 5.039062 38.089844 5.996094 35.699219 5.945312 C 33.800781 5.902344 31.390625 5.328125 28.460938 4.226562 Z M 28.460938 4.226562 "/></g></g></g><g fill="#f9b627" fill-opacity="1"><g transform="translate(46.677936, 193.548098)"><g><path d="M 25.296875 -59.640625 C 22.722656 -62.597656 19.453125 -66.847656 15.484375 -72.390625 C 11.523438 -77.941406 7.847656 -83.679688 4.453125 -89.609375 L 4.328125 -89.578125 C 7.429688 -80.742188 10.148438 -72.644531 12.484375 -65.28125 L 14.0625 -60.296875 L 22.359375 -33.609375 C 24.285156 -27.535156 25.4375 -23.054688 25.8125 -20.171875 C 28.957031 -21.472656 32.632812 -22.789062 36.84375 -24.125 L 40.4375 -12.8125 L 6.90625 -2.1875 L 3.828125 -11.90625 C 6.453125 -12.84375 8.363281 -13.796875 9.5625 -14.765625 C 10.757812 -15.734375 11.472656 -17.222656 11.703125 -19.234375 C 11.929688 -21.253906 11.441406 -24.175781 10.234375 -28 L -6.75 -84.609375 C -8.8125 -91.828125 -10.007812 -96.300781 -10.34375 -98.03125 L -21.234375 -94.09375 L -24.828125 -105.421875 L 7.671875 -115.71875 L 47.90625 -65.84375 C 50.601562 -62.476562 53.507812 -58.753906 56.625 -54.671875 C 59.75 -50.597656 62.046875 -47.441406 63.515625 -45.203125 L 63.671875 -45.265625 C 63.753906 -46.367188 63.867188 -49.75 64.015625 -55.40625 C 64.117188 -59.851562 64.253906 -63.675781 64.421875 -66.875 L 67.96875 -134.828125 L 101.953125 -145.59375 L 105.03125 -135.890625 C 102.40625 -134.941406 100.441406 -133.96875 99.140625 -132.96875 C 97.847656 -131.96875 97.085938 -130.457031 96.859375 -128.4375 C 96.640625 -126.425781 97.1875 -123.523438 98.5 -119.734375 L 118.546875 -64.09375 C 120.429688 -59.195312 121.628906 -54.726562 122.140625 -50.6875 C 125.285156 -51.988281 128.96875 -53.3125 133.1875 -54.65625 L 136.78125 -43.34375 L 95.890625 -30.390625 L 92.8125 -40.109375 C 95.425781 -41.035156 97.359375 -41.992188 98.609375 -42.984375 C 99.859375 -43.972656 100.597656 -45.472656 100.828125 -47.484375 C 101.054688 -49.492188 100.515625 -52.394531 99.203125 -56.1875 L 88.140625 -87.015625 L 86.078125 -92.5 C 82.578125 -101.851562 80.1875 -108.378906 78.90625 -112.078125 L 78.75 -112.03125 L 74.15625 -21.875 L 60.484375 -17.546875 Z M 25.296875 -59.640625 "/></g></g></g><g fill="#f9b627" fill-opacity="1"><g transform="translate(224.290945, 158.37809)"><g><path d="M 29.546875 1.34375 C 32.148438 2.3125 34.222656 2.816406 35.765625 2.859375 C 37.316406 2.898438 38.828125 2.222656 40.296875 0.828125 C 41.765625 -0.566406 43.273438 -3.113281 44.828125 -6.8125 L 73.375 -74.953125 L 66.84375 -77.703125 C 61.207031 -79.953125 56.097656 -79.863281 51.515625 -77.4375 C 46.929688 -75.007812 43.066406 -70.046875 39.921875 -62.546875 L 30.53125 -66.484375 L 44.71875 -98.359375 L 130.953125 -62.234375 L 118.3125 -29.703125 L 108.9375 -33.625 C 112.082031 -41.125 112.914062 -47.441406 111.4375 -52.578125 C 109.96875 -57.710938 106.457031 -61.382812 100.90625 -63.59375 L 94.078125 -66.453125 L 66.125 0.28125 C 63.457031 6.625 61.476562 10.8125 60.1875 12.84375 C 63.4375 13.863281 67.296875 15.3125 71.765625 17.1875 L 67.171875 28.140625 L 25.609375 10.734375 Z M 29.546875 1.34375 "/></g></g></g></g></g><g transform="matrix(1, 0, 0, 1, 182, 159)"><g clip-path="url(#1a602c1c37)"><g fill="#7d5500" fill-opacity="1"><g transform="translate(11.771791, 59.364699)"><g><path d="M 19.199219 -1.320312 C 15.457031 -0.703125 12.085938 -1.003906 9.082031 -2.226562 C 6.082031 -3.449219 3.621094 -5.375 1.703125 -8.003906 C -0.195312 -10.605469 -1.441406 -13.679688 -2.027344 -17.222656 C -2.578125 -20.550781 -2.414062 -23.847656 -1.53125 -27.109375 C -0.636719 -30.40625 1.042969 -33.246094 3.507812 -35.621094 C 5.992188 -38.011719 9.195312 -39.535156 13.125 -40.183594 C 14.644531 -40.4375 16.390625 -40.492188 18.371094 -40.351562 C 20.375 -40.214844 22.128906 -39.84375 23.625 -39.242188 L 23.25 -38.296875 L 23.082031 -39.304688 L 23.132812 -39.3125 L 23.300781 -38.304688 L 22.3125 -38.042969 L 21.476562 -41.207031 L 27.457031 -42.195312 L 29.730469 -28.472656 L 24.601562 -27.625 L 24.324219 -28.449219 C 23.519531 -30.855469 22.265625 -32.574219 20.5625 -33.609375 C 18.859375 -34.644531 16.902344 -34.996094 14.695312 -34.660156 C 12.742188 -34.335938 11.183594 -33.480469 10.023438 -32.09375 C 8.816406 -30.65625 8.027344 -28.871094 7.648438 -26.746094 C 7.257812 -24.554688 7.261719 -22.257812 7.660156 -19.859375 C 8.363281 -15.609375 9.792969 -12.335938 11.949219 -10.042969 C 14 -7.863281 16.503906 -7.019531 19.464844 -7.511719 C 20.480469 -7.679688 21.636719 -7.988281 22.9375 -8.433594 C 24.191406 -8.863281 25.179688 -9.339844 25.894531 -9.859375 L 26.496094 -9.035156 L 25.488281 -8.871094 L 24.714844 -13.542969 C 24.398438 -15.460938 24.210938 -17.019531 24.152344 -18.21875 L 25.171875 -18.269531 L 25.414062 -17.277344 C 24.53125 -17.0625 23.6875 -16.886719 22.890625 -16.753906 L 22.726562 -17.761719 L 22.929688 -16.761719 L 20.59375 -16.28125 L 19.613281 -22.203125 L 34.996094 -24.75 L 35.871094 -19.460938 L 34.914062 -19.261719 C 34.203125 -19.117188 33.683594 -18.9375 33.351562 -18.726562 C 33.160156 -18.601562 33.027344 -18.351562 32.953125 -17.976562 C 32.84375 -17.441406 32.882812 -16.613281 33.066406 -15.496094 L 34.566406 -6.449219 L 32.355469 -6.082031 C 31.65625 -5.964844 30.980469 -5.777344 30.324219 -5.511719 C 29.625 -5.230469 28.730469 -4.816406 27.644531 -4.265625 L 27.636719 -4.257812 L 27.625 -4.253906 C 25.941406 -3.449219 24.515625 -2.828125 23.355469 -2.390625 C 22.160156 -1.9375 20.773438 -1.582031 19.199219 -1.320312 Z M 18.867188 -3.332031 C 20.308594 -3.570312 21.5625 -3.890625 22.636719 -4.296875 C 23.742188 -4.714844 25.113281 -5.316406 26.746094 -6.09375 L 27.1875 -5.175781 L 26.726562 -6.082031 C 27.863281 -6.660156 28.808594 -7.097656 29.5625 -7.402344 C 30.359375 -7.722656 31.175781 -7.953125 32.023438 -8.09375 L 33.226562 -8.292969 L 33.394531 -7.289062 L 32.390625 -7.121094 L 31.058594 -15.164062 C 30.832031 -16.527344 30.796875 -17.597656 30.953125 -18.378906 C 31.140625 -19.320312 31.574219 -20.007812 32.253906 -20.441406 C 32.796875 -20.789062 33.542969 -21.0625 34.5 -21.257812 L 34.707031 -20.261719 L 33.699219 -20.09375 L 33.152344 -23.410156 L 34.15625 -23.578125 L 34.324219 -22.574219 L 20.953125 -20.359375 L 20.785156 -21.363281 L 21.792969 -21.53125 L 22.433594 -17.660156 L 21.425781 -17.492188 L 21.222656 -18.492188 L 22.539062 -18.761719 L 22.558594 -18.765625 C 23.304688 -18.886719 24.09375 -19.054688 24.929688 -19.257812 L 26.132812 -19.554688 L 26.191406 -18.316406 C 26.242188 -17.195312 26.421875 -15.714844 26.726562 -13.878906 L 27.601562 -8.582031 L 27.09375 -8.210938 C 26.210938 -7.570312 25.046875 -7.003906 23.597656 -6.503906 C 22.195312 -6.023438 20.925781 -5.6875 19.796875 -5.5 C 16.125 -4.890625 13.011719 -5.941406 10.464844 -8.648438 C 8.027344 -11.238281 6.421875 -14.867188 5.648438 -19.527344 C 5.210938 -22.15625 5.210938 -24.679688 5.640625 -27.101562 C 6.082031 -29.585938 7.023438 -31.6875 8.460938 -33.402344 C 9.945312 -35.175781 11.921875 -36.265625 14.390625 -36.675781 C 17.085938 -37.082031 19.496094 -36.640625 21.621094 -35.351562 C 23.746094 -34.058594 25.292969 -31.972656 26.257812 -29.09375 L 25.292969 -28.773438 L 25.125 -29.777344 L 28.390625 -30.320312 L 28.558594 -29.3125 L 27.554688 -29.148438 L 25.613281 -40.859375 L 26.617188 -41.023438 L 26.785156 -40.019531 L 22.914062 -39.378906 L 22.75 -40.382812 L 23.734375 -40.644531 L 24.570312 -37.484375 L 23.132812 -37.246094 L 22.871094 -37.351562 C 21.566406 -37.871094 20.019531 -38.195312 18.226562 -38.320312 C 16.410156 -38.449219 14.820312 -38.398438 13.457031 -38.171875 C 9.945312 -37.589844 7.101562 -36.25 4.921875 -34.152344 C 2.726562 -32.039062 1.230469 -29.511719 0.4375 -26.574219 C -0.367188 -23.601562 -0.519531 -20.59375 -0.015625 -17.554688 C 0.519531 -14.332031 1.640625 -11.546875 3.347656 -9.203125 C 5.039062 -6.886719 7.207031 -5.191406 9.851562 -4.113281 C 12.5 -3.035156 15.503906 -2.773438 18.867188 -3.332031 Z M 18.867188 -3.332031 "/></g></g></g><g fill="#7d5500" fill-opacity="1"><g transform="translate(39.106744, 53.276097)"><g><path d="M 18.605469 5.300781 C 15.046875 4.644531 12.039062 3.226562 9.582031 1.050781 C 7.125 -1.125 5.402344 -3.796875 4.410156 -6.964844 C 3.425781 -10.113281 3.253906 -13.425781 3.894531 -16.894531 C 4.507812 -20.21875 5.804688 -23.261719 7.777344 -26.023438 C 9.773438 -28.8125 12.339844 -30.90625 15.480469 -32.296875 C 18.644531 -33.699219 22.183594 -34.039062 26.097656 -33.316406 C 27.527344 -33.050781 29.019531 -32.539062 30.574219 -31.777344 C 32.128906 -31.015625 33.519531 -30.101562 34.746094 -29.035156 L 34.078125 -28.265625 L 34.261719 -29.269531 L 34.3125 -29.257812 L 34.128906 -28.257812 L 33.113281 -28.347656 L 33.398438 -31.605469 L 39.359375 -30.503906 L 36.835938 -16.824219 L 31.722656 -17.769531 L 31.742188 -18.636719 C 31.800781 -21.273438 31.316406 -23.332031 30.296875 -24.8125 C 29.308594 -26.246094 27.777344 -27.171875 25.699219 -27.585938 C 23.714844 -27.953125 21.933594 -27.679688 20.355469 -26.773438 C 18.714844 -25.832031 17.359375 -24.425781 16.28125 -22.554688 C 15.167969 -20.625 14.394531 -18.464844 13.953125 -16.078125 C 13.445312 -13.324219 13.390625 -10.8125 13.789062 -8.542969 C 14.179688 -6.335938 14.980469 -4.53125 16.199219 -3.128906 C 17.378906 -1.765625 18.957031 -0.902344 20.929688 -0.539062 C 22.898438 -0.175781 24.929688 -0.332031 27.023438 -1 C 29.136719 -1.675781 31.015625 -2.785156 32.65625 -4.324219 L 33.484375 -5.101562 L 36.710938 -0.824219 L 36.054688 -0.195312 C 33.15625 2.5625 30.1875 4.296875 27.15625 5.003906 C 24.167969 5.703125 21.316406 5.800781 18.605469 5.300781 Z M 18.976562 3.296875 C 21.410156 3.746094 23.980469 3.652344 26.695312 3.019531 C 29.367188 2.398438 32.019531 0.832031 34.648438 -1.671875 L 35.351562 -0.933594 L 34.539062 -0.320312 L 32.539062 -2.96875 L 33.355469 -3.582031 L 34.050781 -2.839844 C 32.183594 -1.089844 30.050781 0.171875 27.648438 0.941406 C 25.226562 1.714844 22.863281 1.890625 20.558594 1.464844 C 18.121094 1.015625 16.152344 -0.0742188 14.660156 -1.792969 C 13.195312 -3.480469 12.238281 -5.609375 11.785156 -8.1875 C 11.339844 -10.699219 11.394531 -13.453125 11.949219 -16.445312 C 12.429688 -19.066406 13.285156 -21.441406 14.515625 -23.570312 C 15.773438 -25.757812 17.382812 -27.414062 19.339844 -28.539062 C 21.351562 -29.695312 23.605469 -30.042969 26.097656 -29.585938 C 28.714844 -29.0625 30.675781 -27.855469 31.976562 -25.96875 C 33.246094 -24.125 33.847656 -21.667969 33.78125 -18.59375 L 32.761719 -18.613281 L 32.945312 -19.617188 L 36.203125 -19.015625 L 36.019531 -18.011719 L 35.015625 -18.199219 L 37.171875 -29.871094 L 38.171875 -29.6875 L 37.988281 -28.683594 L 34.128906 -29.398438 L 34.316406 -30.398438 L 35.332031 -30.308594 L 35.042969 -27.050781 L 33.617188 -27.316406 L 33.410156 -27.496094 C 32.316406 -28.449219 31.070312 -29.265625 29.679688 -29.945312 C 28.289062 -30.625 26.972656 -31.082031 25.726562 -31.3125 C 22.226562 -31.957031 19.085938 -31.664062 16.304688 -30.433594 C 13.503906 -29.191406 11.214844 -27.328125 9.4375 -24.839844 C 7.636719 -22.320312 6.460938 -19.550781 5.902344 -16.527344 C 5.320312 -13.386719 5.472656 -10.402344 6.355469 -7.574219 C 7.234375 -4.765625 8.757812 -2.402344 10.933594 -0.476562 C 13.105469 1.449219 15.789062 2.707031 18.976562 3.296875 Z M 18.976562 3.296875 "/></g></g></g><g fill="#f9b627" fill-opacity="1"><g transform="translate(11.771791, 59.364699)"><g><path d="M 19.03125 -2.328125 C 15.46875 -1.742188 12.273438 -2.023438 9.453125 -3.171875 C 6.640625 -4.316406 4.328125 -6.125 2.515625 -8.59375 C 0.710938 -11.070312 -0.46875 -14.003906 -1.03125 -17.390625 C -1.5625 -20.578125 -1.398438 -23.726562 -0.546875 -26.84375 C 0.296875 -29.957031 1.878906 -32.640625 4.203125 -34.890625 C 6.535156 -37.140625 9.5625 -38.570312 13.28125 -39.1875 C 14.71875 -39.425781 16.390625 -39.476562 18.296875 -39.34375 C 20.203125 -39.207031 21.859375 -38.859375 23.265625 -38.296875 L 23.3125 -38.3125 L 22.75 -40.390625 L 26.625 -41.03125 L 28.5625 -29.3125 L 25.28125 -28.765625 C 24.40625 -31.410156 23.003906 -33.316406 21.078125 -34.484375 C 19.160156 -35.648438 16.984375 -36.046875 14.546875 -35.671875 C 12.335938 -35.304688 10.570312 -34.332031 9.25 -32.75 C 7.925781 -31.164062 7.054688 -29.222656 6.640625 -26.921875 C 6.234375 -24.617188 6.238281 -22.207031 6.65625 -19.6875 C 7.394531 -15.226562 8.914062 -11.773438 11.21875 -9.328125 C 13.519531 -6.890625 16.328125 -5.945312 19.640625 -6.5 C 20.710938 -6.675781 21.921875 -7 23.265625 -7.46875 C 24.617188 -7.9375 25.691406 -8.457031 26.484375 -9.03125 L 25.703125 -13.71875 C 25.398438 -15.59375 25.226562 -17.109375 25.1875 -18.265625 C 24.320312 -18.054688 23.503906 -17.890625 22.734375 -17.765625 L 21.421875 -17.484375 L 20.78125 -21.375 L 34.15625 -23.59375 L 34.703125 -20.265625 C 33.878906 -20.085938 33.25 -19.859375 32.8125 -19.578125 C 32.375 -19.304688 32.085938 -18.835938 31.953125 -18.171875 C 31.828125 -17.515625 31.867188 -16.566406 32.078125 -15.328125 L 33.40625 -7.296875 L 32.203125 -7.09375 C 31.429688 -6.96875 30.679688 -6.753906 29.953125 -6.453125 C 29.222656 -6.160156 28.300781 -5.726562 27.1875 -5.15625 C 25.519531 -4.375 24.117188 -3.769531 22.984375 -3.34375 C 21.859375 -2.914062 20.539062 -2.578125 19.03125 -2.328125 Z M 19.03125 -2.328125 "/></g></g></g><g fill="#f9b627" fill-opacity="1"><g transform="translate(39.106744, 53.276097)"><g><path d="M 18.796875 4.296875 C 15.421875 3.671875 12.570312 2.332031 10.25 0.28125 C 7.9375 -1.757812 6.3125 -4.273438 5.375 -7.265625 C 4.445312 -10.253906 4.285156 -13.40625 4.890625 -16.71875 C 5.484375 -19.882812 6.722656 -22.785156 8.609375 -25.421875 C 10.492188 -28.066406 12.921875 -30.046875 15.890625 -31.359375 C 18.867188 -32.679688 22.207031 -33 25.90625 -32.3125 C 27.25 -32.0625 28.65625 -31.578125 30.125 -30.859375 C 31.59375 -30.140625 32.910156 -29.273438 34.078125 -28.265625 L 34.140625 -28.265625 L 34.328125 -30.40625 L 38.1875 -29.6875 L 36.03125 -18 L 32.765625 -18.609375 C 32.890625 -24.328125 30.597656 -27.648438 25.890625 -28.578125 C 23.648438 -28.992188 21.628906 -28.679688 19.828125 -27.640625 C 18.035156 -26.609375 16.554688 -25.078125 15.390625 -23.046875 C 14.234375 -21.023438 13.421875 -18.757812 12.953125 -16.25 C 12.421875 -13.382812 12.363281 -10.753906 12.78125 -8.359375 C 13.207031 -5.972656 14.085938 -4.003906 15.421875 -2.453125 C 16.765625 -0.910156 18.535156 0.0625 20.734375 0.46875 C 22.878906 0.863281 25.082031 0.703125 27.34375 -0.015625 C 29.601562 -0.742188 31.609375 -1.929688 33.359375 -3.578125 L 35.34375 -0.9375 C 32.582031 1.695312 29.773438 3.34375 26.921875 4 C 24.078125 4.664062 21.367188 4.765625 18.796875 4.296875 Z M 18.796875 4.296875 "/></g></g></g></g></g></svg>