<svg xmlns="http://www.w3.org/2000/svg" xmlns:xlink="http://www.w3.org/1999/xlink" width="500" zoomAndPan="magnify" viewBox="0 0 375 374.999991" height="500" preserveAspectRatio="xMidYMid meet" version="1.0"><defs><g/><clipPath id="519d2491f1"><path d="M 189 88.402344 L 257.082031 88.402344 L 257.082031 161 L 189 161 Z M 189 88.402344 " clip-rule="nonzero"/></clipPath><clipPath id="9ba0c962da"><path d="M 117.582031 88.402344 L 186 88.402344 L 186 161 L 117.582031 161 Z M 117.582031 88.402344 " clip-rule="nonzero"/></clipPath><clipPath id="a6f82224ec"><path d="M 140.875 124 L 152.125 124 L 152.125 162.816406 L 140.875 162.816406 Z M 140.875 124 " clip-rule="nonzero"/></clipPath></defs><g clip-path="url(#519d2491f1)"><path fill="#184470" d="M 256 157.019531 C 256.386719 156.886719 256.707031 156.601562 256.886719 156.230469 C 257.0625 155.859375 257.082031 155.433594 256.945312 155.046875 C 256.796875 154.636719 242.050781 113.972656 236.988281 101.066406 C 236.75 100.457031 236.140625 100.015625 235.496094 100.09375 C 212.03125 101.0625 192.367188 88.453125 192.171875 88.328125 C 191.917969 88.160156 191.625 88.074219 191.332031 88.074219 C 191.082031 88.074219 190.832031 88.136719 190.605469 88.261719 C 190.109375 88.53125 189.800781 89.046875 189.800781 89.609375 L 189.800781 143.808594 C 189.800781 144.230469 189.972656 144.632812 190.277344 144.921875 C 216.722656 170.070312 255.609375 157.152344 256 157.019531 Z M 256 157.019531 " fill-opacity="1" fill-rule="nonzero"/></g><g clip-path="url(#9ba0c962da)"><path fill="#184470" d="M 118.113281 156.230469 C 118.289062 156.601562 118.609375 156.886719 119 157.019531 C 119.390625 157.152344 158.273438 170.070312 184.722656 144.921875 C 185.027344 144.632812 185.199219 144.230469 185.199219 143.808594 L 185.199219 89.609375 C 185.199219 89.046875 184.890625 88.53125 184.394531 88.261719 C 184.164062 88.136719 183.914062 88.074219 183.664062 88.074219 C 183.371094 88.074219 183.078125 88.160156 182.824219 88.328125 C 182.628906 88.453125 162.960938 101.078125 139.5 100.09375 C 138.835938 100.019531 138.246094 100.457031 138.007812 101.066406 C 132.945312 113.972656 118.203125 154.636719 118.054688 155.046875 C 117.914062 155.433594 117.933594 155.859375 118.113281 156.230469 Z M 118.113281 156.230469 " fill-opacity="1" fill-rule="nonzero"/></g><path fill="#fab627" d="M 187.242188 149.625 C 187.597656 149.625 187.949219 149.746094 188.238281 149.988281 C 216.871094 174.375 248.042969 162.507812 248.355469 162.386719 C 249.144531 162.074219 250.035156 162.464844 250.347656 163.25 C 250.65625 164.039062 250.269531 164.925781 249.484375 165.238281 C 249.160156 165.367188 217.097656 177.640625 187.320312 153.222656 C 162.007812 177.34375 127.609375 166.34375 127.257812 166.226562 C 126.457031 165.960938 126.019531 165.09375 126.285156 164.292969 C 126.550781 163.488281 127.421875 163.054688 128.222656 163.316406 C 128.558594 163.425781 162.121094 174.109375 186.15625 150.074219 C 186.457031 149.777344 186.847656 149.625 187.242188 149.625 Z M 187.242188 149.625 " fill-opacity="1" fill-rule="nonzero"/><path fill="#fab627" d="M 206.835938 166.800781 C 207.121094 166.78125 207.414062 166.84375 207.679688 166.992188 C 207.8125 167.066406 220.984375 174.324219 235.019531 171.8125 C 235.859375 171.65625 236.648438 172.21875 236.796875 173.054688 C 236.949219 173.886719 236.394531 174.683594 235.558594 174.832031 C 220.445312 177.558594 206.753906 169.992188 206.179688 169.667969 C 205.441406 169.253906 205.179688 168.320312 205.59375 167.582031 C 205.859375 167.109375 206.335938 166.832031 206.835938 166.800781 Z M 206.835938 166.800781 " fill-opacity="1" fill-rule="nonzero"/><g clip-path="url(#a6f82224ec)"><path fill="#fab627" d="M 152.125 124.015625 L 151.890625 124.015625 L 146.558594 130.164062 C 146.414062 130.332031 146.246094 130.332031 146.101562 130.164062 L 140.769531 124.015625 L 140.535156 124.015625 L 140.535156 162.8125 L 152.125 162.8125 Z M 152.125 124.015625 " fill-opacity="1" fill-rule="nonzero"/></g><g fill="#184470" fill-opacity="1"><g transform="translate(98.93359, 216.224986)"><g><path d="M 19.984375 0.6875 C 16.515625 0.6875 13.5 0.132812 10.9375 -0.96875 C 8.375 -2.070312 6.378906 -3.671875 4.953125 -5.765625 C 3.535156 -7.859375 2.78125 -10.394531 2.6875 -13.375 L 10.484375 -13.375 C 10.609375 -11.769531 11.082031 -10.425781 11.90625 -9.34375 C 12.726562 -8.257812 13.835938 -7.441406 15.234375 -6.890625 C 16.640625 -6.347656 18.21875 -6.078125 19.96875 -6.078125 C 21.726562 -6.078125 23.28125 -6.335938 24.625 -6.859375 C 25.96875 -7.390625 27.019531 -8.140625 27.78125 -9.109375 C 28.539062 -10.085938 28.921875 -11.210938 28.921875 -12.484375 C 28.921875 -13.617188 28.597656 -14.5625 27.953125 -15.3125 C 27.316406 -16.070312 26.394531 -16.71875 25.1875 -17.25 C 23.988281 -17.78125 22.546875 -18.257812 20.859375 -18.6875 L 15.875 -19.9375 C 12 -20.882812 9.019531 -22.332031 6.9375 -24.28125 C 4.851562 -26.226562 3.8125 -28.769531 3.8125 -31.90625 C 3.8125 -34.53125 4.507812 -36.820312 5.90625 -38.78125 C 7.3125 -40.75 9.238281 -42.28125 11.6875 -43.375 C 14.144531 -44.46875 16.929688 -45.015625 20.046875 -45.015625 C 23.242188 -45.015625 26.035156 -44.460938 28.421875 -43.359375 C 30.804688 -42.253906 32.671875 -40.71875 34.015625 -38.75 C 35.367188 -36.789062 36.078125 -34.519531 36.140625 -31.9375 L 28.484375 -31.9375 C 28.285156 -33.945312 27.425781 -35.503906 25.90625 -36.609375 C 24.382812 -37.722656 22.40625 -38.28125 19.96875 -38.28125 C 18.3125 -38.28125 16.875 -38.019531 15.65625 -37.5 C 14.4375 -36.988281 13.492188 -36.289062 12.828125 -35.40625 C 12.160156 -34.519531 11.828125 -33.503906 11.828125 -32.359375 C 11.828125 -31.160156 12.179688 -30.175781 12.890625 -29.40625 C 13.609375 -28.632812 14.550781 -28 15.71875 -27.5 C 16.894531 -27 18.160156 -26.59375 19.515625 -26.28125 L 23.75 -25.203125 C 25.53125 -24.785156 27.207031 -24.238281 28.78125 -23.5625 C 30.363281 -22.882812 31.757812 -22.039062 32.96875 -21.03125 C 34.1875 -20.019531 35.140625 -18.816406 35.828125 -17.421875 C 36.515625 -16.035156 36.859375 -14.410156 36.859375 -12.546875 C 36.859375 -9.898438 36.1875 -7.582031 34.84375 -5.59375 C 33.5 -3.613281 31.570312 -2.070312 29.0625 -0.96875 C 26.550781 0.132812 23.523438 0.6875 19.984375 0.6875 Z M 19.984375 0.6875 "/></g></g></g><g fill="#184470" fill-opacity="1"><g transform="translate(138.463551, 216.224986)"><g><path d="M 13.3125 0.65625 C 11.207031 0.65625 9.316406 0.28125 7.640625 -0.46875 C 5.960938 -1.226562 4.632812 -2.34375 3.65625 -3.8125 C 2.6875 -5.28125 2.203125 -7.097656 2.203125 -9.265625 C 2.203125 -11.128906 2.550781 -12.664062 3.25 -13.875 C 3.945312 -15.09375 4.894531 -16.0625 6.09375 -16.78125 C 7.289062 -17.507812 8.644531 -18.0625 10.15625 -18.4375 C 11.664062 -18.8125 13.226562 -19.082031 14.84375 -19.25 C 16.78125 -19.46875 18.34375 -19.65625 19.53125 -19.8125 C 20.726562 -19.96875 21.597656 -20.222656 22.140625 -20.578125 C 22.691406 -20.941406 22.96875 -21.488281 22.96875 -22.21875 L 22.96875 -22.40625 C 22.96875 -23.457031 22.742188 -24.351562 22.296875 -25.09375 C 21.847656 -25.84375 21.195312 -26.414062 20.34375 -26.8125 C 19.488281 -27.207031 18.425781 -27.40625 17.15625 -27.40625 C 15.90625 -27.40625 14.804688 -27.210938 13.859375 -26.828125 C 12.921875 -26.441406 12.160156 -25.925781 11.578125 -25.28125 C 10.992188 -24.632812 10.582031 -23.925781 10.34375 -23.15625 L 3.15625 -24.28125 C 3.695312 -26.289062 4.625 -27.960938 5.9375 -29.296875 C 7.257812 -30.640625 8.878906 -31.65625 10.796875 -32.34375 C 12.710938 -33.03125 14.84375 -33.375 17.1875 -33.375 C 18.851562 -33.375 20.484375 -33.171875 22.078125 -32.765625 C 23.679688 -32.367188 25.128906 -31.726562 26.421875 -30.84375 C 27.710938 -29.96875 28.738281 -28.804688 29.5 -27.359375 C 30.269531 -25.921875 30.65625 -24.160156 30.65625 -22.078125 L 30.65625 0 L 23.234375 0 L 23.234375 -4.5625 L 22.96875 -4.5625 C 22.488281 -3.625 21.820312 -2.757812 20.96875 -1.96875 C 20.113281 -1.175781 19.054688 -0.539062 17.796875 -0.0625 C 16.535156 0.414062 15.039062 0.65625 13.3125 0.65625 Z M 15.28125 -5.0625 C 16.875 -5.0625 18.25 -5.375 19.40625 -6 C 20.570312 -6.625 21.46875 -7.453125 22.09375 -8.484375 C 22.71875 -9.523438 23.03125 -10.660156 23.03125 -11.890625 L 23.03125 -15.703125 C 22.769531 -15.503906 22.351562 -15.316406 21.78125 -15.140625 C 21.21875 -14.972656 20.570312 -14.828125 19.84375 -14.703125 C 19.125 -14.578125 18.398438 -14.457031 17.671875 -14.34375 C 16.953125 -14.238281 16.316406 -14.15625 15.765625 -14.09375 C 14.628906 -13.9375 13.597656 -13.671875 12.671875 -13.296875 C 11.753906 -12.929688 11.023438 -12.4375 10.484375 -11.8125 C 9.953125 -11.1875 9.6875 -10.367188 9.6875 -9.359375 C 9.6875 -8.421875 9.921875 -7.632812 10.390625 -7 C 10.867188 -6.363281 11.523438 -5.878906 12.359375 -5.546875 C 13.191406 -5.222656 14.164062 -5.0625 15.28125 -5.0625 Z M 15.28125 -5.0625 "/></g></g></g><g fill="#184470" fill-opacity="1"><g transform="translate(171.976062, 216.224986)"><g><path d="M 13.28125 0 L 1.015625 -32.890625 L 9.234375 -32.890625 L 15.25 -15.171875 C 15.925781 -13.140625 16.519531 -11.085938 17.03125 -9.015625 C 17.550781 -6.953125 18.082031 -4.878906 18.625 -2.796875 L 16.75 -2.796875 C 17.28125 -4.878906 17.796875 -6.945312 18.296875 -9 C 18.804688 -11.0625 19.390625 -13.117188 20.046875 -15.171875 L 26.03125 -32.890625 L 34.171875 -32.890625 L 21.875 0 Z M 13.28125 0 "/></g></g></g><g fill="#184470" fill-opacity="1"><g transform="translate(206.024762, 216.224986)"><g><path d="M 18.46875 0.6875 C 15.175781 0.6875 12.332031 -0.015625 9.9375 -1.421875 C 7.539062 -2.835938 5.695312 -4.816406 4.40625 -7.359375 C 3.113281 -9.898438 2.46875 -12.878906 2.46875 -16.296875 C 2.46875 -19.648438 3.109375 -22.613281 4.390625 -25.1875 C 5.671875 -27.757812 7.476562 -29.765625 9.8125 -31.203125 C 12.144531 -32.648438 14.875 -33.375 18 -33.375 C 20.082031 -33.375 22.039062 -33.03125 23.875 -32.34375 C 25.71875 -31.65625 27.335938 -30.617188 28.734375 -29.234375 C 30.128906 -27.859375 31.222656 -26.125 32.015625 -24.03125 C 32.816406 -21.9375 33.21875 -19.476562 33.21875 -16.65625 L 33.21875 -14.328125 L 5.984375 -14.328125 L 5.984375 -19.578125 L 29.375 -19.578125 L 25.796875 -18.046875 C 25.796875 -19.921875 25.5 -21.550781 24.90625 -22.9375 C 24.3125 -24.332031 23.441406 -25.410156 22.296875 -26.171875 C 21.160156 -26.929688 19.742188 -27.3125 18.046875 -27.3125 C 16.378906 -27.3125 14.953125 -26.925781 13.765625 -26.15625 C 12.578125 -25.382812 11.664062 -24.328125 11.03125 -22.984375 C 10.40625 -21.640625 10.09375 -20.132812 10.09375 -18.46875 L 10.09375 -14.921875 C 10.09375 -12.878906 10.441406 -11.140625 11.140625 -9.703125 C 11.835938 -8.273438 12.828125 -7.191406 14.109375 -6.453125 C 15.390625 -5.722656 16.882812 -5.359375 18.59375 -5.359375 C 19.738281 -5.359375 20.78125 -5.523438 21.71875 -5.859375 C 22.65625 -6.203125 23.453125 -6.695312 24.109375 -7.34375 C 24.773438 -7.988281 25.28125 -8.78125 25.625 -9.71875 L 32.71875 -8.578125 C 32.21875 -6.734375 31.316406 -5.113281 30.015625 -3.71875 C 28.710938 -2.332031 27.078125 -1.25 25.109375 -0.46875 C 23.148438 0.300781 20.9375 0.6875 18.46875 0.6875 Z M 18.46875 0.6875 "/></g></g></g><g fill="#fab627" fill-opacity="1"><g transform="translate(236.230459, 216.224986)"><g><path d="M 2.234375 -37.65625 L 2.234375 -44.390625 L 37.59375 -44.390625 L 37.59375 -37.65625 L 23.890625 -37.65625 L 23.890625 0 L 15.96875 0 L 15.96875 -37.65625 Z M 2.234375 -37.65625 "/></g></g></g><g fill="#fab627" fill-opacity="1"><g transform="translate(173.136701, 115.776847)"><g><path d="M 1.609375 -27.15625 L 1.609375 -32.015625 L 27.109375 -32.015625 L 27.109375 -27.15625 L 17.234375 -27.15625 L 17.234375 0 L 11.515625 0 L 11.515625 -27.15625 Z M 1.609375 -27.15625 "/></g></g></g><g fill="#fab627" fill-opacity="1"><g transform="translate(178.768747, 110.376775)"><g><path d="M 1.09375 0 L 1.09375 -9.171875 L 3.234375 -9.171875 L 3.234375 0 Z M 2.171875 -10.46875 C 1.816406 -10.46875 1.515625 -10.582031 1.265625 -10.8125 C 1.023438 -11.050781 0.90625 -11.332031 0.90625 -11.65625 C 0.90625 -11.988281 1.023438 -12.269531 1.265625 -12.5 C 1.515625 -12.726562 1.816406 -12.84375 2.171875 -12.84375 C 2.515625 -12.84375 2.804688 -12.726562 3.046875 -12.5 C 3.296875 -12.269531 3.421875 -11.988281 3.421875 -11.65625 C 3.421875 -11.332031 3.296875 -11.050781 3.046875 -10.8125 C 2.804688 -10.582031 2.515625 -10.46875 2.171875 -10.46875 Z M 2.171875 -10.46875 "/></g></g></g><g fill="#fab627" fill-opacity="1"><g transform="translate(245.968757, 209.649917)"><g><path d="M 1.09375 0 L 1.09375 -9.171875 L 3.234375 -9.171875 L 3.234375 0 Z M 2.171875 -10.46875 C 1.816406 -10.46875 1.515625 -10.582031 1.265625 -10.8125 C 1.023438 -11.050781 0.90625 -11.332031 0.90625 -11.65625 C 0.90625 -11.988281 1.023438 -12.269531 1.265625 -12.5 C 1.515625 -12.726562 1.816406 -12.84375 2.171875 -12.84375 C 2.515625 -12.84375 2.804688 -12.726562 3.046875 -12.5 C 3.296875 -12.269531 3.421875 -11.988281 3.421875 -11.65625 C 3.421875 -11.332031 3.296875 -11.050781 3.046875 -10.8125 C 2.804688 -10.582031 2.515625 -10.46875 2.171875 -10.46875 Z M 2.171875 -10.46875 "/></g></g></g></svg>